<svg version="1.1" xmlns="http://www.w3.org/2000/svg" viewBox="0 0 1531 846" width="1531" height="846" filter="invert(93%) hue-rotate(180deg)">
  <!-- svg-source:excalidraw -->
  
  <defs>
    <style>
      @font-face {
        font-family: "Virgil";
        src: url("https://excalidraw.com/Virgil.woff2");
      }
      @font-face {
        font-family: "Cascadia";
        src: url("https://excalidraw.com/Cascadia.woff2");
      }
    </style>
  </defs>
  <rect x="0" y="0" width="1531" height="846" fill="#ffffff"></rect><g stroke-linecap="round" transform="translate(226 100) rotate(0 87 58.5)"><path d="M0.05 -1.23 C42.81 2.97, 87.14 2.99, 175.75 -1.17 M0.97 0.3 C64.38 -1.93, 131.14 -0.55, 173.06 -0.31 M173.02 0.18 C172.25 44.27, 173.49 90.82, 175.03 115.62 M173.83 0.85 C175.39 42.19, 176.02 84.87, 173.69 116.87 M175.61 115.29 C138.94 118.8, 105.39 119.7, 1.67 118.66 M174.24 116.22 C129.72 116.06, 84.59 116.05, -0.36 116.05 M-1.79 118.24 C0.72 74.43, -0.79 32.87, -0.57 0.81 M-0.19 116.26 C0.69 89.6, -0.12 60.61, -0.33 0.41" stroke="#000000" stroke-width="1" fill="none"></path></g><g stroke-linecap="round" transform="translate(529 102) rotate(0 86 29)"><path d="M-1.2 0.56 C41.07 0.06, 81.04 2.37, 173.16 1.27 M-0.67 -0.1 C66.52 0.51, 131.58 0.99, 171.31 0.46 M170.68 0.87 C172.82 21.31, 171.28 42.93, 173.06 58 M172.65 0.21 C170.92 22.84, 170.88 45.49, 171.37 57.92 M173.05 58.14 C107.74 57.46, 38.51 55.21, -1.88 59.83 M171.49 57.18 C114.69 58.42, 56.89 59.35, 0.02 58.68 M0.97 58.36 C-1.87 39.49, -0.43 19.79, 1.74 0.47 M0.86 57.99 C-0.78 43, 0.51 29.77, 0.92 -0.27" stroke="#000000" stroke-width="1" fill="none"></path></g><g stroke-linecap="round" transform="translate(811 100) rotate(0 116 73)"><path d="M-1.11 -1.59 C89.39 2.42, 175.14 2.79, 231.13 -1.4 M0.3 0.01 C83.69 -0.96, 166.86 -0.97, 232.41 0.15 M233.62 1.74 C233.49 32.17, 234.38 67.58, 233.73 145.98 M231.94 0.92 C230.4 37.34, 231.24 75.76, 231.47 146.81 M231.41 146.33 C157.63 145.71, 82.81 146.3, -1.4 146.32 M231.52 145.45 C161.11 144.56, 91.11 143.89, 0.64 145.8 M1.94 144.23 C0.45 105.61, 0.26 67.42, 1.76 -0.07 M-0.85 146.8 C1.75 104.76, 0.21 65.55, 0.99 -0.72" stroke="#000000" stroke-width="1" fill="none"></path></g><g stroke-linecap="round" transform="translate(1185 88) rotate(0 121 79.5)"><path d="M0.7 0.8 C89.28 -2.7, 179.13 -1.51, 243.34 1.44 M0.39 0.72 C78.25 -1.68, 155.77 -0.61, 241.95 0.77 M240.73 -1.07 C242.26 43.88, 238.97 85.66, 241.3 159.39 M242.91 -0.82 C243.08 48.55, 242.67 96.22, 241.43 158.35 M241.01 160.26 C187.59 157.4, 134.35 159.42, 1.61 157.53 M241.37 159.73 C159.72 159.42, 76.95 158.91, -0.71 159.67 M0.67 160.97 C-0.08 98.56, 2.87 37.12, 0.86 -0.24 M0.84 158.18 C1.51 112, 0.57 65.12, 0.27 -0.29" stroke="#000000" stroke-width="1" fill="none"></path></g><g stroke-linecap="round" transform="translate(1185 379) rotate(0 168 73)"><path d="M0.04 -0.3 C130.32 -1.19, 261.96 -1.46, 336.26 -0.67 M-0.24 0.16 C81.25 1.17, 160.74 0.79, 335.37 0.21 M335.53 -1.32 C335.58 30.99, 338.89 66.98, 334.3 144.49 M335.93 0.76 C336.8 49.13, 337.32 97.33, 335.36 145.93 M335.46 145.4 C206.16 147.46, 77.8 146.85, 0.77 146.33 M336.01 146.52 C267.28 148.24, 198.98 148.03, -0.51 145.94 M-0.45 146.78 C-1.62 108.83, -0.76 74.76, 1.4 -0.04 M-0.22 146.18 C1.83 100.1, 1.46 55.94, 0.24 -0.48" stroke="#000000" stroke-width="1" fill="none"></path></g><g stroke-linecap="round" transform="translate(1227 617) rotate(0 125.5 68)"><path d="M-1.39 1.31 C70.74 0.35, 137.66 2.29, 252.61 -1.17 M0.35 -0.1 C73.38 0.8, 146.82 2, 250.33 0.4 M251.53 -0.57 C250.02 36.45, 250.89 68.68, 251.89 137.43 M251.94 -0.8 C252.66 40.3, 251.95 81.56, 251.72 136.2 M249.57 136.24 C180.98 136.56, 111.61 135.58, -1 134.74 M250.46 136.45 C181.6 138.11, 111.14 137.41, 0.21 135.31 M-0.96 136.94 C0.77 85.27, -1.99 35.12, 0.7 0.98 M-0.91 136.56 C0.69 91.32, 1.5 46.84, -0.62 -0.71" stroke="#000000" stroke-width="1" fill="none"></path></g><g stroke-linecap="round" transform="translate(916 652) rotate(0 98.5 71)"><path d="M1.54 -1.42 C69.7 -1.65, 136.88 -1.56, 196.82 -1.15 M0.39 -0.28 C72.39 0.59, 146.34 1.14, 196.98 0.1 M197.36 1.86 C194.57 34.97, 196.71 68.2, 196.04 140.78 M197.37 0.7 C195.32 46.77, 196.43 92.75, 196.26 142.58 M195.93 143.42 C129.14 143.67, 64.84 142.42, 1.55 142.16 M197.86 141.51 C149.19 141.75, 104.25 142.28, 0.55 142.66 M0.7 141.04 C2.88 90.9, -0.49 43.49, -1.74 0.26 M0.39 141.01 C-1.71 111.49, -0.66 80.52, 0.32 0.3" stroke="#000000" stroke-width="1" fill="none"></path></g><g stroke-linecap="round" transform="translate(559 641) rotate(0 140.5 94)"><path d="M0.85 0.62 C89.7 0.7, 177.72 1.83, 279.7 1.15 M0.36 0.49 C94.84 0.46, 189.91 1.3, 281.37 0.21 M282.12 -0.08 C282.2 47.9, 282.49 91.46, 279.57 187.68 M281.06 0.97 C280.66 73.2, 280.73 145.79, 280.35 188.14 M279.77 186.92 C187.27 188.77, 93.04 188.8, 1.2 187.88 M280.97 188.35 C185.32 186.95, 90.71 186.58, 0.41 187.86 M0.37 189 C1.16 122.84, 1.33 58.68, 0.69 0.26 M-0.39 188.09 C-0.12 113.18, -0.73 39.45, -0.66 -0.08" stroke="#000000" stroke-width="1" fill="none"></path></g><g stroke-linecap="round" transform="translate(258 615) rotate(0 113 110.5)"><path d="M-0.07 -0.11 C85.16 -0.95, 166.6 -2.3, 225.73 1.48 M0.83 0.51 C57.1 0.45, 113.67 -0.67, 226.12 0.3 M224.78 0.39 C226.36 55.93, 226.39 112.76, 225.87 221.67 M226.39 -0.47 C225.13 44.6, 224.7 89.14, 225.84 221.42 M226.85 220.47 C179.98 220.97, 134.82 221.95, 0.22 222.61 M226.08 221.52 C148.88 220.24, 72.68 219.68, -0.07 221.13 M0.68 220.75 C-1.39 151.66, -0.91 84.44, 0.89 0.51 M0.47 220.14 C1.36 158.05, 1.34 96.38, -0.4 0.81" stroke="#000000" stroke-width="1" fill="none"></path></g><g stroke-linecap="round" transform="translate(443 274.9999999999999) rotate(0 248 159.5)"><path d="M-0.69 0.64 C160 0.06, 319.31 -0.75, 495.97 0.37 M-0.07 0.22 C121.73 -0.42, 243.23 -0.7, 496.08 0.2 M497.15 0.49 C496.54 87.06, 496.9 172.4, 495.45 319.13 M495.75 -0.46 C494.33 114.99, 494.44 230.44, 495.5 319.28 M496.43 318.62 C354.71 317.52, 212.43 316.99, -0.41 319.44 M496.3 319.12 C396.12 318.18, 296.93 317.53, 0.24 318.7 M-0.04 317.65 C2.66 237.85, 0.45 156.05, -0.22 0.62 M-0.17 318.9 C2.61 240.37, 1.58 160.99, 0.61 -0.38" stroke="#000000" stroke-width="1" fill="none"></path></g><g stroke-linecap="round"><g transform="translate(438 151) rotate(0 29.099403709596942 0.5293382515478982)"><path d="M0.35 -0.56 C10.32 -0.55, 49.65 0.72, 59.13 0.93 M-0.93 1.76 C9.05 1.37, 48.67 -0.2, 58.77 -0.7" stroke="#000000" stroke-width="1" fill="none"></path></g><g transform="translate(438 151) rotate(0 29.099403709596942 0.5293382515478982)"><path d="M31.05 12.28 C39.89 6.33, 45.97 3.49, 57.89 -2.11 M32.75 10.72 C40.87 6.82, 51.21 3.07, 58.25 -1.7" stroke="#000000" stroke-width="1" fill="none"></path></g><g transform="translate(438 151) rotate(0 29.099403709596942 0.5293382515478982)"><path d="M30.18 -7.54 C39.37 -8.73, 45.66 -6.8, 57.89 -2.11 M31.88 -9.09 C40.31 -5.82, 50.97 -2.4, 58.25 -1.7" stroke="#000000" stroke-width="1" fill="none"></path></g></g><g stroke-linecap="round"><g transform="translate(742 153) rotate(0 34.39641052318268 -1.7351690389215975)"><path d="M-0.18 0.65 C11.56 0.01, 58.87 -3.68, 70.53 -4.12 M-1.73 -0.06 C9.89 -0.56, 58.08 -2.55, 69.85 -3.17" stroke="#000000" stroke-width="1" fill="none"></path></g><g transform="translate(742 153) rotate(0 34.39641052318268 -1.7351690389215975)"><path d="M43.25 9.25 C48.8 4.53, 60.87 0.28, 68.27 -4.46 M43.06 7.68 C48.74 5.73, 53.09 4.56, 69.14 -3.72" stroke="#000000" stroke-width="1" fill="none"></path></g><g transform="translate(742 153) rotate(0 34.39641052318268 -1.7351690389215975)"><path d="M42.3 -11.25 C48.1 -9.7, 60.45 -7.68, 68.27 -4.46 M42.11 -12.82 C47.8 -10.51, 52.35 -7.43, 69.14 -3.72" stroke="#000000" stroke-width="1" fill="none"></path></g></g><g stroke-linecap="round"><g transform="translate(1067 160.9426716295069) rotate(0 57.619060578197264 -8.764705600350311)"><path d="M-0.62 -0.8 C18.83 -4.1, 96.69 -16.06, 115.85 -18.93 M1.26 1.4 C20.7 -1.85, 96.69 -14.83, 115.35 -17.84" stroke="#000000" stroke-width="1" fill="none"></path></g><g transform="translate(1067 160.9426716295069) rotate(0 57.619060578197264 -8.764705600350311)"><path d="M87.9 -1.66 C93.71 -7.44, 101.27 -10.74, 113.59 -18.04 M89.06 -2.86 C98.48 -9.5, 109.84 -13.93, 114.89 -17.97" stroke="#000000" stroke-width="1" fill="none"></path></g><g transform="translate(1067 160.9426716295069) rotate(0 57.619060578197264 -8.764705600350311)"><path d="M84.53 -21.9 C91.26 -23.01, 99.6 -21.65, 113.59 -18.04 M85.68 -23.11 C96.61 -21.81, 109.29 -18.3, 114.89 -17.97" stroke="#000000" stroke-width="1" fill="none"></path></g></g><g stroke-linecap="round"><g transform="translate(1294.3953282883222 273) rotate(0 4.295794790092941 35.936215375461614)"><path d="M-0.15 0.28 C1.41 12.46, 8.54 60.36, 10.29 72.49 M-1.7 -0.61 C-0.39 11.24, 7.32 58.65, 9.17 70.62" stroke="#000000" stroke-width="1" fill="none"></path></g><g transform="translate(1294.3953282883222 273) rotate(0 4.295794790092941 35.936215375461614)"><path d="M-4.9 43.85 C0.76 53.74, 7.1 65.87, 7.36 72.14 M-5.34 44.9 C-2.89 50.75, 1.49 56.02, 9.04 69.68" stroke="#000000" stroke-width="1" fill="none"></path></g><g transform="translate(1294.3953282883222 273) rotate(0 4.295794790092941 35.936215375461614)"><path d="M15.37 40.64 C13.43 51.71, 12.19 65.04, 7.36 72.14 M14.93 41.69 C12.86 48.25, 12.7 54.25, 9.04 69.68" stroke="#000000" stroke-width="1" fill="none"></path></g></g><g stroke-linecap="round"><g transform="translate(1327.0995727479483 553) rotate(0 -12.55851738201693 25.925428731078284)"><path d="M0.67 0.47 C-3.44 9.1, -21.5 42.38, -25.78 51.11 M-0.44 -0.33 C-4.09 8.49, -19.34 43.63, -23.6 52.18" stroke="#000000" stroke-width="1" fill="none"></path></g><g transform="translate(1327.0995727479483 553) rotate(0 -12.55851738201693 25.925428731078284)"><path d="M-20.45 21.8 C-23.36 28.91, -20.9 33.9, -22.14 53.71 M-20.34 22.96 C-21.17 30.64, -23.2 37.82, -23.05 51.75" stroke="#000000" stroke-width="1" fill="none"></path></g><g transform="translate(1327.0995727479483 553) rotate(0 -12.55851738201693 25.925428731078284)"><path d="M-2.56 30.03 C-9.1 35.55, -10.31 38.85, -22.14 53.71 M-2.45 31.2 C-7.55 36.94, -13.94 42.11, -23.05 51.75" stroke="#000000" stroke-width="1" fill="none"></path></g></g><g stroke-linecap="round"><g transform="translate(1174 730) rotate(0 -22.72776578580033 6.981371295996951)"><path d="M-0.45 -0.65 C-8.19 1.59, -38.39 10.63, -46.02 13.05 M1.52 1.62 C-6.42 4.1, -38.88 12.88, -46.97 14.61" stroke="#000000" stroke-width="1" fill="none"></path></g><g transform="translate(1174 730) rotate(0 -22.72776578580033 6.981371295996951)"><path d="M-28.22 1.26 C-33.75 5.39, -39 9.61, -47 13.17 M-26.95 2.07 C-31.36 4.88, -36.71 7.25, -46.05 15.38" stroke="#000000" stroke-width="1" fill="none"></path></g><g transform="translate(1174 730) rotate(0 -22.72776578580033 6.981371295996951)"><path d="M-24.29 17.13 C-31.09 15.92, -37.66 14.82, -47 13.17 M-23.02 17.94 C-28.38 17.13, -34.61 15.93, -46.05 15.38" stroke="#000000" stroke-width="1" fill="none"></path></g></g><g stroke-linecap="round"><g transform="translate(891 722) rotate(0 -16.790224888175715 -3.4455771304666882)"><path d="M0.24 0.93 C-5.44 -0.53, -28.46 -6.49, -33.82 -7.82 M-1.1 0.38 C-6.41 -0.95, -26.37 -4.64, -31.53 -6.19" stroke="#000000" stroke-width="1" fill="none"></path></g><g transform="translate(891 722) rotate(0 -16.790224888175715 -3.4455771304666882)"><path d="M-13.35 -9.33 C-19.77 -5.94, -24.09 -7.04, -32.89 -6.6 M-15.19 -8.16 C-20.24 -6.53, -26.98 -6.08, -31.87 -5.81" stroke="#000000" stroke-width="1" fill="none"></path></g><g transform="translate(891 722) rotate(0 -16.790224888175715 -3.4455771304666882)"><path d="M-16.02 1.97 C-21.68 1.76, -25.15 -2.94, -32.89 -6.6 M-17.86 3.14 C-21.9 0.64, -27.67 -3.01, -31.87 -5.81" stroke="#000000" stroke-width="1" fill="none"></path></g></g><g stroke-linecap="round"><g transform="translate(542 729.9970495035075) rotate(0 -23.104945447039768 -4.669660157663657)"><path d="M0.54 -1.19 C-7.22 -2.8, -37.99 -8.68, -45.87 -10.14 M-0.63 0.8 C-8.61 -0.61, -39.49 -7.28, -46.75 -8.89" stroke="#000000" stroke-width="1" fill="none"></path></g><g transform="translate(542 729.9970495035075) rotate(0 -23.104945447039768 -4.669660157663657)"><path d="M-25.45 -11.84 C-32.77 -12.02, -40.87 -9.14, -46.57 -7.42 M-22.94 -12.46 C-32.08 -11.61, -40.17 -9.7, -46.23 -9.06" stroke="#000000" stroke-width="1" fill="none"></path></g><g transform="translate(542 729.9970495035075) rotate(0 -23.104945447039768 -4.669660157663657)"><path d="M-28.86 3.87 C-34.89 -2, -41.75 -4.78, -46.57 -7.42 M-26.36 3.25 C-34.41 -1.47, -41.29 -5.14, -46.23 -9.06" stroke="#000000" stroke-width="1" fill="none"></path></g></g><g transform="translate(489 239) rotate(0 141 35)"><text x="0" y="25" font-family="Virgil, Segoe UI Emoji" font-size="28px" fill="#e67700" text-anchor="start" style="white-space: pre;" direction="ltr">Final App UI and Ux</text><text x="0" y="60" font-family="Virgil, Segoe UI Emoji" font-size="28px" fill="#e67700" text-anchor="start" style="white-space: pre;" direction="ltr"></text></g><g stroke-linecap="round"><g transform="translate(187 736) rotate(0 -46 -52.5)"><path d="M0 0 C-15.33 -17.5, -76.67 -87.5, -92 -105 M0 0 C-15.33 -17.5, -76.67 -87.5, -92 -105" stroke="#c92a2a" stroke-width="4" fill="none"></path></g><g transform="translate(187 736) rotate(0 -46 -52.5)"><path d="M-65.7 -90.56 C-71.15 -93.55, -76.6 -96.54, -92 -105 M-65.7 -90.56 C-72.59 -94.34, -79.47 -98.12, -92 -105" stroke="#c92a2a" stroke-width="4" fill="none"></path></g><g transform="translate(187 736) rotate(0 -46 -52.5)"><path d="M-81.14 -77.03 C-83.39 -82.83, -85.64 -88.62, -92 -105 M-81.14 -77.03 C-83.98 -84.35, -86.82 -91.67, -92 -105" stroke="#c92a2a" stroke-width="4" fill="none"></path></g></g><g stroke-linecap="round"><g transform="translate(203 441) rotate(0 114.03738317757009 -21.728161230430203)"><path d="M0 0 C38.01 -7.24, 190.06 -36.21, 228.07 -43.46 M0 0 C38.01 -7.24, 190.06 -36.21, 228.07 -43.46" stroke="#c92a2a" stroke-width="4" fill="none"></path></g><g transform="translate(203 441) rotate(0 114.03738317757009 -21.728161230430203)"><path d="M202.3 -28.1 C208.36 -31.71, 214.41 -35.32, 228.07 -43.46 M202.3 -28.1 C210.94 -33.24, 219.57 -38.39, 228.07 -43.46" stroke="#c92a2a" stroke-width="4" fill="none"></path></g><g transform="translate(203 441) rotate(0 114.03738317757009 -21.728161230430203)"><path d="M198.46 -48.26 C205.42 -47.13, 212.37 -46, 228.07 -43.46 M198.46 -48.26 C208.38 -46.65, 218.3 -45.04, 228.07 -43.46" stroke="#c92a2a" stroke-width="4" fill="none"></path></g></g><g stroke-linecap="round" transform="translate(10 381) rotate(0 103 92.5)"><path d="M0 0 C46.57 0, 93.15 0, 206 0 M0 0 C63.59 0, 127.17 0, 206 0 M206 0 C206 52.82, 206 105.63, 206 185 M206 0 C206 48.21, 206 96.43, 206 185 M206 185 C137.39 185, 68.77 185, 0 185 M206 185 C144.93 185, 83.85 185, 0 185 M0 185 C0 141.24, 0 97.48, 0 0 M0 185 C0 146.74, 0 108.48, 0 0" stroke="#000000" stroke-width="1" fill="none"></path></g><g transform="translate(248 138.5) rotate(0 65 20)"><text x="65" y="14" font-family="Virgil, Segoe UI Emoji" font-size="16px" fill="#000000" text-anchor="middle" style="white-space: pre;" direction="ltr">Create an image</text><text x="65" y="34" font-family="Virgil, Segoe UI Emoji" font-size="16px" fill="#000000" text-anchor="middle" style="white-space: pre;" direction="ltr">uploader app</text></g><g transform="translate(425 117) rotate(0 35 10)"><text x="0" y="14" font-family="Virgil, Segoe UI Emoji" font-size="16px" fill="#000000" text-anchor="start" style="white-space: pre;" direction="ltr">features</text></g><g transform="translate(543 114) rotate(0 52 10)"><text x="0" y="14" font-family="Virgil, Segoe UI Emoji" font-size="16px" fill="#000000" text-anchor="start" style="white-space: pre;" direction="ltr">Use plain css</text></g><g transform="translate(836 127) rotate(0 84.5 40)"><text x="0" y="14" font-family="Virgil, Segoe UI Emoji" font-size="16px" fill="#000000" text-anchor="start" style="white-space: pre;" direction="ltr">add the title and </text><text x="0" y="34" font-family="Virgil, Segoe UI Emoji" font-size="16px" fill="#000000" text-anchor="start" style="white-space: pre;" direction="ltr">a plus or add button</text><text x="0" y="54" font-family="Virgil, Segoe UI Emoji" font-size="16px" fill="#000000" text-anchor="start" style="white-space: pre;" direction="ltr">from where we will </text><text x="0" y="74" font-family="Virgil, Segoe UI Emoji" font-size="16px" fill="#000000" text-anchor="start" style="white-space: pre;" direction="ltr">add photos</text></g><g transform="translate(1208 117) rotate(0 94 30)"><text x="0" y="14" font-family="Virgil, Segoe UI Emoji" font-size="16px" fill="#000000" text-anchor="start" style="white-space: pre;" direction="ltr">also add drag and drop</text><text x="0" y="34" font-family="Virgil, Segoe UI Emoji" font-size="16px" fill="#000000" text-anchor="start" style="white-space: pre;" direction="ltr">feature for addding </text><text x="0" y="54" font-family="Virgil, Segoe UI Emoji" font-size="16px" fill="#000000" text-anchor="start" style="white-space: pre;" direction="ltr">pictures</text></g><g transform="translate(1213 408) rotate(0 151 40)"><text x="0" y="14" font-family="Virgil, Segoe UI Emoji" font-size="16px" fill="#000000" text-anchor="start" style="white-space: pre;" direction="ltr">It only add pictures and nothing else </text><text x="0" y="34" font-family="Virgil, Segoe UI Emoji" font-size="16px" fill="#000000" text-anchor="start" style="white-space: pre;" direction="ltr">show error if not picture</text><text x="0" y="54" font-family="Virgil, Segoe UI Emoji" font-size="16px" fill="#000000" text-anchor="start" style="white-space: pre;" direction="ltr"></text><text x="0" y="74" font-family="Virgil, Segoe UI Emoji" font-size="16px" fill="#000000" text-anchor="start" style="white-space: pre;" direction="ltr">add a good grid layout</text></g><g stroke-linecap="round" transform="translate(504 10) rotate(0 372.5 29.5)"><path d="M0 0 C255.68 0, 511.36 0, 745 0 M0 0 C276.79 0, 553.59 0, 745 0 M745 0 C745 15.31, 745 30.62, 745 59 M745 0 C745 23.24, 745 46.48, 745 59 M745 59 C452.97 59, 160.95 59, 0 59 M745 59 C504.7 59, 264.39 59, 0 59 M0 59 C0 45.65, 0 32.29, 0 0 M0 59 C0 35.84, 0 12.67, 0 0" stroke="#000000" stroke-width="1" fill="none"></path></g><g transform="translate(649 15.5) rotate(0 258.5 22.5)"><text x="0" y="32" font-family="Virgil, Segoe UI Emoji" font-size="36px" fill="#000000" text-anchor="start" style="white-space: pre;" direction="ltr">Snapbook Web app flow chart</text></g><g transform="translate(1241 668) rotate(0 108.5 20)"><text x="0" y="14" font-family="Virgil, Segoe UI Emoji" font-size="16px" fill="#000000" text-anchor="start" style="white-space: pre;" direction="ltr">See the structure on figma</text><text x="0" y="34" font-family="Virgil, Segoe UI Emoji" font-size="16px" fill="#000000" text-anchor="start" style="white-space: pre;" direction="ltr">got from devchallenges.io</text></g><g transform="translate(935 663) rotate(0 85.5 40)"><text x="0" y="14" font-family="Virgil, Segoe UI Emoji" font-size="16px" fill="#000000" text-anchor="start" style="white-space: pre;" direction="ltr">It shows uplaoding on</text><text x="0" y="34" font-family="Virgil, Segoe UI Emoji" font-size="16px" fill="#000000" text-anchor="start" style="white-space: pre;" direction="ltr">uploading with a blue</text><text x="0" y="54" font-family="Virgil, Segoe UI Emoji" font-size="16px" fill="#000000" text-anchor="start" style="white-space: pre;" direction="ltr">uplaoding bar on </text><text x="0" y="74" font-family="Virgil, Segoe UI Emoji" font-size="16px" fill="#000000" text-anchor="start" style="white-space: pre;" direction="ltr">a div</text></g><g transform="translate(613 666) rotate(0 114 50)"><text x="0" y="14" font-family="Virgil, Segoe UI Emoji" font-size="16px" fill="#000000" text-anchor="start" style="white-space: pre;" direction="ltr">shows uploaded successfully </text><text x="0" y="34" font-family="Virgil, Segoe UI Emoji" font-size="16px" fill="#000000" text-anchor="start" style="white-space: pre;" direction="ltr">with the picture with a </text><text x="0" y="54" font-family="Virgil, Segoe UI Emoji" font-size="16px" fill="#000000" text-anchor="start" style="white-space: pre;" direction="ltr">time out of 3 sec</text><text x="0" y="74" font-family="Virgil, Segoe UI Emoji" font-size="16px" fill="#000000" text-anchor="start" style="white-space: pre;" direction="ltr">and goes back to the grid</text><text x="0" y="94" font-family="Virgil, Segoe UI Emoji" font-size="16px" fill="#000000" text-anchor="start" style="white-space: pre;" direction="ltr">pictures</text></g><g transform="translate(65 427) rotate(0 72.5 50)"><text x="0" y="14" font-family="Virgil, Segoe UI Emoji" font-size="16px" fill="#000000" text-anchor="start" style="white-space: pre;" direction="ltr">Try to add</text><text x="0" y="34" font-family="Virgil, Segoe UI Emoji" font-size="16px" fill="#000000" text-anchor="start" style="white-space: pre;" direction="ltr">Authentication</text><text x="0" y="54" font-family="Virgil, Segoe UI Emoji" font-size="16px" fill="#000000" text-anchor="start" style="white-space: pre;" direction="ltr">on the app either </text><text x="0" y="74" font-family="Virgil, Segoe UI Emoji" font-size="16px" fill="#000000" text-anchor="start" style="white-space: pre;" direction="ltr">google signin or </text><text x="0" y="94" font-family="Virgil, Segoe UI Emoji" font-size="16px" fill="#000000" text-anchor="start" style="white-space: pre;" direction="ltr">a demo</text></g><g transform="translate(276 639) rotate(0 92 50)"><text x="0" y="14" font-family="Virgil, Segoe UI Emoji" font-size="16px" fill="#000000" text-anchor="start" style="white-space: pre;" direction="ltr">add CRUD Operations</text><text x="0" y="34" font-family="Virgil, Segoe UI Emoji" font-size="16px" fill="#000000" text-anchor="start" style="white-space: pre;" direction="ltr">using firebase and </text><text x="0" y="54" font-family="Virgil, Segoe UI Emoji" font-size="16px" fill="#000000" text-anchor="start" style="white-space: pre;" direction="ltr">firestore for database</text><text x="0" y="74" font-family="Virgil, Segoe UI Emoji" font-size="16px" fill="#000000" text-anchor="start" style="white-space: pre;" direction="ltr"></text><text x="0" y="94" font-family="Virgil, Segoe UI Emoji" font-size="16px" fill="#000000" text-anchor="start" style="white-space: pre;" direction="ltr"></text></g><g stroke-linecap="round" transform="translate(563 403) rotate(0 25 25.5)"><path d="M0 0 C19.81 0, 39.61 0, 50 0 M0 0 C13.46 0, 26.93 0, 50 0 M50 0 C50 15.74, 50 31.48, 50 51 M50 0 C50 16.16, 50 32.32, 50 51 M50 51 C37.57 51, 25.14 51, 0 51 M50 51 C37.08 51, 24.17 51, 0 51 M0 51 C0 39.41, 0 27.82, 0 0 M0 51 C0 36.65, 0 22.29, 0 0" stroke="#000000" stroke-width="1" fill="none"></path></g><g stroke-linecap="round" transform="translate(621 406) rotate(0 55 22.5)"><path d="M0 0 C34.47 0, 68.93 0, 110 0 M0 0 C22.66 0, 45.32 0, 110 0 M110 0 C110 9.22, 110 18.44, 110 45 M110 0 C110 17.67, 110 35.35, 110 45 M110 45 C69.4 45, 28.8 45, 0 45 M110 45 C78.79 45, 47.59 45, 0 45 M0 45 C0 28.41, 0 11.82, 0 0 M0 45 C0 27.45, 0 9.9, 0 0" stroke="#000000" stroke-width="1" fill="none"></path></g><g stroke-linecap="round" transform="translate(742 407) rotate(0 31.5 20)"><path d="M0 0 C21.44 0, 42.88 0, 63 0 M0 0 C23.9 0, 47.81 0, 63 0 M63 0 C63 13.17, 63 26.33, 63 40 M63 0 C63 11.68, 63 23.37, 63 40 M63 40 C38.32 40, 13.64 40, 0 40 M63 40 C38.85 40, 14.71 40, 0 40 M0 40 C0 28.25, 0 16.51, 0 0 M0 40 C0 31.9, 0 23.79, 0 0" stroke="#000000" stroke-width="1" fill="none"></path></g><g stroke-linecap="round" transform="translate(577 463) rotate(0 68 30.5)"><path d="M0 0 C52.13 0, 104.25 0, 136 0 M0 0 C39.94 0, 79.88 0, 136 0 M136 0 C136 12.36, 136 24.71, 136 61 M136 0 C136 19.63, 136 39.26, 136 61 M136 61 C88.39 61, 40.77 61, 0 61 M136 61 C82.89 61, 29.78 61, 0 61 M0 61 C0 44.51, 0 28.02, 0 0 M0 61 C0 39.77, 0 18.54, 0 0" stroke="#000000" stroke-width="1" fill="none"></path></g><g stroke-linecap="round" transform="translate(729 462) rotate(0 38 21.5)"><path d="M0 0 C21.84 0, 43.68 0, 76 0 M0 0 C17.95 0, 35.9 0, 76 0 M76 0 C76 15.92, 76 31.84, 76 43 M76 0 C76 14.9, 76 29.81, 76 43 M76 43 C60.06 43, 44.12 43, 0 43 M76 43 C60.24 43, 44.49 43, 0 43 M0 43 C0 30.66, 0 18.31, 0 0 M0 43 C0 34.3, 0 25.6, 0 0" stroke="#000000" stroke-width="1" fill="none"></path></g><g transform="translate(587 288) rotate(0 65.5 10)"><text x="0" y="14" font-family="Virgil, Segoe UI Emoji" font-size="16px" fill="#000000" text-anchor="start" style="white-space: pre;" direction="ltr">Title of the app</text></g><g stroke-linecap="round" transform="translate(471 293) rotate(0 10.5 9.5)"><path d="M11 0 C13.74 2.74, 16.47 5.47, 21 10 M11 0 C14.7 3.7, 18.4 7.4, 21 10 M21 10 C18.37 12.37, 15.74 14.73, 11 19 M21 10 C17.65 13.02, 14.3 16.03, 11 19 M11 19 C7.62 16.23, 4.23 13.46, 0 10 M11 19 C7.47 16.11, 3.94 13.22, 0 10 M0 10 C3.19 7.1, 6.38 4.2, 11 0 M0 10 C3.38 6.93, 6.76 3.86, 11 0" stroke="#000000" stroke-width="1" fill="none"></path></g><g stroke-linecap="round"><g transform="translate(915 415) rotate(0 39 -5.5)"><path d="M0 0 C13 -1.83, 65 -9.17, 78 -11 M0 0 C13 -1.83, 65 -9.17, 78 -11" stroke="#000000" stroke-width="1" fill="none"></path></g><g transform="translate(915 415) rotate(0 39 -5.5)"><path d="M51.52 3.1 C58.48 -0.61, 65.44 -4.32, 78 -11 M51.52 3.1 C60.39 -1.63, 69.26 -6.35, 78 -11" stroke="#000000" stroke-width="1" fill="none"></path></g><g transform="translate(915 415) rotate(0 39 -5.5)"><path d="M48.65 -17.22 C56.37 -15.59, 64.08 -13.95, 78 -11 M48.65 -17.22 C58.48 -15.14, 68.32 -13.05, 78 -11" stroke="#000000" stroke-width="1" fill="none"></path></g></g><g stroke-linecap="round" transform="translate(1008 357) rotate(0 74 79)"><path d="M0 0 C56.75 0, 113.49 0, 148 0 M0 0 C35.76 0, 71.52 0, 148 0 M148 0 C148 57.68, 148 115.35, 148 158 M148 0 C148 57.35, 148 114.7, 148 158 M148 158 C102.72 158, 57.44 158, 0 158 M148 158 C113.29 158, 78.58 158, 0 158 M0 158 C0 107.54, 0 57.08, 0 0 M0 158 C0 104.96, 0 51.92, 0 0" stroke="#000000" stroke-width="1" fill="none"></path></g><g transform="translate(690 332) rotate(0 119.5 20)"><text x="0" y="14" font-family="Virgil, Segoe UI Emoji" font-size="16px" fill="#000000" text-anchor="start" style="white-space: pre;" direction="ltr">for adding photos with drag &amp;</text><text x="0" y="34" font-family="Virgil, Segoe UI Emoji" font-size="16px" fill="#000000" text-anchor="start" style="white-space: pre;" direction="ltr">drop</text></g><g transform="translate(883 399) rotate(0 37 40)"><text x="0" y="14" font-family="Virgil, Segoe UI Emoji" font-size="16px" fill="#000000" text-anchor="start" style="white-space: pre;" direction="ltr">Pop up</text><text x="0" y="34" font-family="Virgil, Segoe UI Emoji" font-size="16px" fill="#000000" text-anchor="start" style="white-space: pre;" direction="ltr">UI of</text><text x="0" y="54" font-family="Virgil, Segoe UI Emoji" font-size="16px" fill="#000000" text-anchor="start" style="white-space: pre;" direction="ltr">add &amp; </text><text x="0" y="74" font-family="Virgil, Segoe UI Emoji" font-size="16px" fill="#000000" text-anchor="start" style="white-space: pre;" direction="ltr">drag-drop</text></g><g stroke-linecap="round"><g transform="translate(805.539231251332 322.20000000000005) rotate(0 1.7100960650734578 -6.400000000000006)"><path d="M0 0 C0.57 -2.13, 2.85 -10.67, 3.42 -12.8 M0 0 C0.57 -2.13, 2.85 -10.67, 3.42 -12.8" stroke="#000000" stroke-width="1" fill="none"></path></g><g transform="translate(805.539231251332 322.20000000000005) rotate(0 1.7100960650734578 -6.400000000000006)"><path d="M4 -6.2 C3.88 -7.59, 3.76 -8.97, 3.42 -12.8 M4 -6.2 C3.83 -8.12, 3.66 -10.04, 3.42 -12.8" stroke="#000000" stroke-width="1" fill="none"></path></g><g transform="translate(805.539231251332 322.20000000000005) rotate(0 1.7100960650734578 -6.400000000000006)"><path d="M-0.38 -7.37 C0.42 -8.51, 1.22 -9.65, 3.42 -12.8 M-0.38 -7.37 C0.73 -8.95, 1.84 -10.53, 3.42 -12.8" stroke="#000000" stroke-width="1" fill="none"></path></g></g><g stroke-linecap="round" transform="translate(767 280) rotate(0 46.5 10.5)"><path d="M0 0 C24.53 0, 49.06 0, 93 0 M0 0 C26.31 0, 52.62 0, 93 0 M93 0 C93 8.36, 93 16.72, 93 21 M93 0 C93 6.3, 93 12.6, 93 21 M93 21 C63.72 21, 34.45 21, 0 21 M93 21 C64.75 21, 36.5 21, 0 21 M0 21 C0 14.89, 0 8.79, 0 0 M0 21 C0 16.43, 0 11.87, 0 0" stroke="#000000" stroke-width="1" fill="none"></path></g><g transform="translate(769.5 280.5) rotate(0 44 10)"><text x="44" y="14" font-family="Virgil, Segoe UI Emoji" font-size="16px" fill="#000000" text-anchor="middle" style="white-space: pre;" direction="ltr">add photos</text></g><g transform="translate(1032 390) rotate(0 57 30)"><text x="0" y="14" font-family="Virgil, Segoe UI Emoji" font-size="16px" fill="#000000" text-anchor="start" style="white-space: pre;" direction="ltr">Figma design</text><text x="0" y="34" font-family="Virgil, Segoe UI Emoji" font-size="16px" fill="#000000" text-anchor="start" style="white-space: pre;" direction="ltr">with uplaoding</text><text x="0" y="54" font-family="Virgil, Segoe UI Emoji" font-size="16px" fill="#000000" text-anchor="start" style="white-space: pre;" direction="ltr">bar and pop ui</text></g><g stroke-linecap="round"><g transform="translate(1135 702) rotate(0 31 -5.5)"><path d="M0 0 C10.33 -1.83, 51.67 -9.17, 62 -11 M0 0 C10.33 -1.83, 51.67 -9.17, 62 -11" stroke="#000000" stroke-width="1" fill="none"></path></g><g transform="translate(1135 702) rotate(0 31 -5.5)"><path d="M36.04 4.03 C45.74 -1.59, 55.45 -7.21, 62 -11 M36.04 4.03 C41.32 0.97, 46.6 -2.08, 62 -11" stroke="#000000" stroke-width="1" fill="none"></path></g><g transform="translate(1135 702) rotate(0 31 -5.5)"><path d="M32.45 -16.18 C43.5 -14.24, 54.55 -12.31, 62 -11 M32.45 -16.18 C38.46 -15.13, 44.47 -14.07, 62 -11" stroke="#000000" stroke-width="1" fill="none"></path></g></g><g stroke-linecap="round"><g transform="translate(1150 715) rotate(0 15 -3)"><path d="M0 0 C5 -1, 25 -5, 30 -6 M0 0 C5 -1, 25 -5, 30 -6" stroke="#000000" stroke-width="1" fill="none"></path></g></g><g stroke-linecap="round"><g transform="translate(1161 702) rotate(0 3.5 10)"><path d="M0 0 C1.17 3.33, 5.83 16.67, 7 20 M0 0 C1.17 3.33, 5.83 16.67, 7 20" stroke="#000000" stroke-width="1" fill="none"></path></g></g><g stroke-linecap="round"><g transform="translate(1165 683) rotate(0 -38.5 -100.5)"><path d="M0 0 C-12.83 -33.5, -64.17 -167.5, -77 -201 M0 0 C-12.83 -33.5, -64.17 -167.5, -77 -201" stroke="#2b8a3e" stroke-width="1" fill="none"></path></g><g transform="translate(1165 683) rotate(0 -38.5 -100.5)"><path d="M-57.33 -178.35 C-63.26 -185.18, -69.19 -192.01, -77 -201 M-57.33 -178.35 C-61.45 -183.09, -65.57 -187.84, -77 -201" stroke="#2b8a3e" stroke-width="1" fill="none"></path></g><g transform="translate(1165 683) rotate(0 -38.5 -100.5)"><path d="M-76.5 -171 C-76.65 -180.05, -76.8 -189.09, -77 -201 M-76.5 -171 C-76.6 -177.29, -76.71 -183.57, -77 -201" stroke="#2b8a3e" stroke-width="1" fill="none"></path></g></g></svg>